<?xml version="1.0" encoding="UTF-8"?>
<!DOCTYPE svg PUBLIC "-//W3C//DTD SVG 1.1//EN" "http://www.w3.org/Graphics/SVG/1.1/DTD/svg11.dtd">
<svg xmlns="http://www.w3.org/2000/svg" version="1.1" width="2048px" height="2048px" style="shape-rendering:geometricPrecision; text-rendering:geometricPrecision; image-rendering:optimizeQuality; fill-rule:evenodd; clip-rule:evenodd" xmlns:xlink="http://www.w3.org/1999/xlink">
<g><path style="opacity:0.999" fill="#eff1f5" d="M 978.5,-0.5 C 1008.17,-0.5 1037.83,-0.5 1067.5,-0.5C 1319.23,13.2981 1537.57,104.798 1722.5,274C 1896.45,439.042 2001.62,640.875 2038,879.5C 2042.41,912.536 2045.58,945.536 2047.5,978.5C 2047.5,1008.17 2047.5,1037.83 2047.5,1067.5C 2033.7,1319.23 1942.2,1537.57 1773,1722.5C 1607.96,1896.45 1406.12,2001.62 1167.5,2038C 1134.46,2042.41 1101.46,2045.58 1068.5,2047.5C 1038.83,2047.5 1009.17,2047.5 979.5,2047.5C 727.766,2033.7 509.433,1942.2 324.5,1773C 150.547,1607.96 45.3805,1406.12 9,1167.5C 4.5884,1134.46 1.42173,1101.46 -0.5,1068.5C -0.5,1038.83 -0.5,1009.17 -0.5,979.5C 13.2981,727.766 104.798,509.433 274,324.5C 439.042,150.547 640.875,45.3805 879.5,9C 912.536,4.5884 945.536,1.42173 978.5,-0.5 Z"/></g>
<g><path style="opacity:1" fill="#7161ef" d="M 580.5,364.5 C 603.02,361.83 621.854,368.83 637,385.5C 769.833,562.5 902.667,739.5 1035.5,916.5C 1173.21,744.957 1310.37,572.957 1447,400.5C 1467.29,377.303 1491.79,371.47 1520.5,383C 1548.84,398.854 1559.34,422.688 1552,454.5C 1550.14,460.56 1547.47,466.226 1544,471.5C 1399.11,652.723 1254.61,834.223 1110.5,1016C 1250.32,1202.49 1390.15,1388.99 1530,1575.5C 1538.83,1593.03 1539.83,1611.03 1533,1629.5C 1519.75,1656.05 1498.25,1667.88 1468.5,1665C 1453.36,1662.35 1440.86,1655.18 1431,1643.5C 1298.4,1466.62 1165.56,1289.95 1032.5,1113.5C 894.477,1286.36 756.643,1459.36 619,1632.5C 597.116,1653.76 572.283,1657.93 544.5,1645C 520.741,1629.64 510.908,1607.8 515,1579.5C 516.839,1572.82 519.506,1566.49 523,1560.5C 668.167,1378.17 813.333,1195.83 958.5,1013.5C 818.474,827.308 678.641,640.975 539,454.5C 524.323,424.395 529.489,398.228 554.5,376C 562.449,370.304 571.116,366.471 580.5,364.5 Z"/></g>
</svg>
